<svg aria-roledescription="er" role="graphics-document document" viewBox="0 0 637.2969970703125 865" style="max-width: 637.297px; background-color: white;" xmlns:xlink="http://www.w3.org/1999/xlink" xmlns="http://www.w3.org/2000/svg" width="100%" id="my-svg"><style>#my-svg{font-family:"trebuchet ms",verdana,arial,sans-serif;font-size:16px;fill:#000000;}#my-svg .error-icon{fill:#552222;}#my-svg .error-text{fill:#552222;stroke:#552222;}#my-svg .edge-thickness-normal{stroke-width:2px;}#my-svg .edge-thickness-thick{stroke-width:3.5px;}#my-svg .edge-pattern-solid{stroke-dasharray:0;}#my-svg .edge-pattern-dashed{stroke-dasharray:3;}#my-svg .edge-pattern-dotted{stroke-dasharray:2;}#my-svg .marker{fill:#000000;stroke:#000000;}#my-svg .marker.cross{stroke:#000000;}#my-svg svg{font-family:"trebuchet ms",verdana,arial,sans-serif;font-size:16px;}#my-svg .entityBox{fill:#cde498;stroke:#13540c;}#my-svg .attributeBoxOdd{fill:#ffffff;stroke:#13540c;}#my-svg .attributeBoxEven{fill:#f2f2f2;stroke:#13540c;}#my-svg .relationshipLabelBox{fill:hsl(78.1578947368, 58.4615384615%, 84.5098039216%);opacity:0.7;background-color:hsl(78.1578947368, 58.4615384615%, 84.5098039216%);}#my-svg .relationshipLabelBox rect{opacity:0.5;}#my-svg .relationshipLine{stroke:#000000;}#my-svg .entityTitleText{text-anchor:middle;font-size:18px;fill:#000000;}#my-svg #MD_PARENT_START{fill:#f5f5f5!important;stroke:#000000!important;stroke-width:1;}#my-svg #MD_PARENT_END{fill:#f5f5f5!important;stroke:#000000!important;stroke-width:1;}#my-svg :root{--mermaid-font-family:"trebuchet ms",verdana,arial,sans-serif;}</style><g/><defs><marker orient="auto" markerHeight="240" markerWidth="190" refY="7" refX="0" id="MD_PARENT_START"><path d="M 18,7 L9,13 L1,7 L9,1 Z"/></marker></defs><defs><marker orient="auto" markerHeight="28" markerWidth="20" refY="7" refX="19" id="MD_PARENT_END"><path d="M 18,7 L9,13 L1,7 L9,1 Z"/></marker></defs><defs><marker orient="auto" markerHeight="18" markerWidth="18" refY="9" refX="0" id="ONLY_ONE_START"><path d="M9,0 L9,18 M15,0 L15,18" fill="none" stroke="gray"/></marker></defs><defs><marker orient="auto" markerHeight="18" markerWidth="18" refY="9" refX="18" id="ONLY_ONE_END"><path d="M3,0 L3,18 M9,0 L9,18" fill="none" stroke="gray"/></marker></defs><defs><marker orient="auto" markerHeight="18" markerWidth="30" refY="9" refX="0" id="ZERO_OR_ONE_START"><circle r="6" cy="9" cx="21" fill="white" stroke="gray"/><path d="M9,0 L9,18" fill="none" stroke="gray"/></marker></defs><defs><marker orient="auto" markerHeight="18" markerWidth="30" refY="9" refX="30" id="ZERO_OR_ONE_END"><circle r="6" cy="9" cx="9" fill="white" stroke="gray"/><path d="M21,0 L21,18" fill="none" stroke="gray"/></marker></defs><defs><marker orient="auto" markerHeight="36" markerWidth="45" refY="18" refX="18" id="ONE_OR_MORE_START"><path d="M0,18 Q 18,0 36,18 Q 18,36 0,18 M42,9 L42,27" fill="none" stroke="gray"/></marker></defs><defs><marker orient="auto" markerHeight="36" markerWidth="45" refY="18" refX="27" id="ONE_OR_MORE_END"><path d="M3,9 L3,27 M9,18 Q27,0 45,18 Q27,36 9,18" fill="none" stroke="gray"/></marker></defs><defs><marker orient="auto" markerHeight="36" markerWidth="57" refY="18" refX="18" id="ZERO_OR_MORE_START"><circle r="6" cy="18" cx="48" fill="white" stroke="gray"/><path d="M0,18 Q18,0 36,18 Q18,36 0,18" fill="none" stroke="gray"/></marker></defs><defs><marker orient="auto" markerHeight="36" markerWidth="57" refY="18" refX="39" id="ZERO_OR_MORE_END"><circle r="6" cy="18" cx="9" fill="white" stroke="gray"/><path d="M21,18 Q39,0 57,18 Q39,36 21,18" fill="none" stroke="gray"/></marker></defs><path style="stroke: gray; fill: none;" marker-start="url(#ZERO_OR_ONE_START)" marker-end="url(#ZERO_OR_ONE_END)" d="M245.88638305664062,427.30355409027084L221.60518900553384,462.58629507522573C197.3239949544271,497.8690360601806,148.76160685221353,568.4345180300903,124.48041280110677,615.7172590150452C100.19921875,663,100.19921875,687,100.19921875,699L100.19921875,711" class="er relationshipLine"/><path style="stroke: gray; fill: none;" marker-start="url(#ZERO_OR_ONE_START)" marker-end="url(#ZERO_OR_ONE_END)" d="M330.3984375,589L330.3984375,597.3333333333334C330.3984375,605.6666666666666,330.3984375,622.3333333333334,330.3984375,644.5C330.3984375,666.6666666666666,330.3984375,694.3333333333334,330.3984375,708.1666666666666L330.3984375,722" class="er relationshipLine"/><path style="stroke: gray; fill: none;" marker-start="url(#ZERO_OR_ONE_START)" marker-end="url(#ONLY_ONE_END)" d="M414.9104919433594,433.90890553224256L437.2333628336589,468.0907546102021C459.5562337239583,502.2726036881617,504.2019755045573,570.6363018440808,526.5248463948568,613.1514842553737C548.8477172851562,655.6666666666666,548.8477172851562,672.3333333333334,548.8477172851562,680.6666666666666L548.8477172851562,689" class="er relationshipLine"/><g transform="translate(480.3984375,689 )" id="entity-UserType-429c3533-c7a3-5d68-9a88-d1da5e4d68d0"><rect height="156" width="136.8985595703125" y="0" x="0" class="er entityBox"/><text style="dominant-baseline: middle; text-anchor: middle; font-size: 12px;" transform="translate(68.44927978515625,12)" y="0" x="0" id="text-entity-UserType-429c3533-c7a3-5d68-9a88-d1da5e4d68d0" class="er entityLabel">UserType</text><rect height="22" width="68.44927978515625" y="24" x="0" class="er attributeBoxOdd"/><text style="dominant-baseline: middle; font-size: 10.2px;" transform="translate(5,35)" y="0" x="0" id="text-entity-UserType-429c3533-c7a3-5d68-9a88-d1da5e4d68d0-attr-1-type" class="er entityLabel">ERP</text><rect height="22" width="68.44927978515625" y="24" x="68.44927978515625" class="er attributeBoxOdd"/><text style="dominant-baseline: middle; font-size: 10.2px;" transform="translate(73.44927978515625,35)" y="0" x="0" id="text-entity-UserType-429c3533-c7a3-5d68-9a88-d1da5e4d68d0-attr-1-name" class="er entityLabel">ERP</text><rect height="22" width="68.44927978515625" y="46" x="0" class="er attributeBoxEven"/><text style="dominant-baseline: middle; font-size: 10.2px;" transform="translate(5,57)" y="0" x="0" id="text-entity-UserType-429c3533-c7a3-5d68-9a88-d1da5e4d68d0-attr-2-type" class="er entityLabel">PUBLIC</text><rect height="22" width="68.44927978515625" y="46" x="68.44927978515625" class="er attributeBoxEven"/><text style="dominant-baseline: middle; font-size: 10.2px;" transform="translate(73.44927978515625,57)" y="0" x="0" id="text-entity-UserType-429c3533-c7a3-5d68-9a88-d1da5e4d68d0-attr-2-name" class="er entityLabel">PUBLIC</text><rect height="22" width="68.44927978515625" y="68" x="0" class="er attributeBoxOdd"/><text style="dominant-baseline: middle; font-size: 10.2px;" transform="translate(5,79)" y="0" x="0" id="text-entity-UserType-429c3533-c7a3-5d68-9a88-d1da5e4d68d0-attr-3-type" class="er entityLabel">API</text><rect height="22" width="68.44927978515625" y="68" x="68.44927978515625" class="er attributeBoxOdd"/><text style="dominant-baseline: middle; font-size: 10.2px;" transform="translate(73.44927978515625,79)" y="0" x="0" id="text-entity-UserType-429c3533-c7a3-5d68-9a88-d1da5e4d68d0-attr-3-name" class="er entityLabel">API</text><rect height="22" width="68.44927978515625" y="90" x="0" class="er attributeBoxEven"/><text style="dominant-baseline: middle; font-size: 10.2px;" transform="translate(5,101)" y="0" x="0" id="text-entity-UserType-429c3533-c7a3-5d68-9a88-d1da5e4d68d0-attr-4-type" class="er entityLabel">SYSTEM</text><rect height="22" width="68.44927978515625" y="90" x="68.44927978515625" class="er attributeBoxEven"/><text style="dominant-baseline: middle; font-size: 10.2px;" transform="translate(73.44927978515625,101)" y="0" x="0" id="text-entity-UserType-429c3533-c7a3-5d68-9a88-d1da5e4d68d0-attr-4-name" class="er entityLabel">SYSTEM</text><rect height="22" width="68.44927978515625" y="112" x="0" class="er attributeBoxOdd"/><text style="dominant-baseline: middle; font-size: 10.2px;" transform="translate(5,123)" y="0" x="0" id="text-entity-UserType-429c3533-c7a3-5d68-9a88-d1da5e4d68d0-attr-5-type" class="er entityLabel">ANONYMOUS</text><rect height="22" width="68.44927978515625" y="112" x="68.44927978515625" class="er attributeBoxOdd"/><text style="dominant-baseline: middle; font-size: 10.2px;" transform="translate(73.44927978515625,123)" y="0" x="0" id="text-entity-UserType-429c3533-c7a3-5d68-9a88-d1da5e4d68d0-attr-5-name" class="er entityLabel">ANONYMOUS</text><rect height="22" width="68.44927978515625" y="134" x="0" class="er attributeBoxEven"/><text style="dominant-baseline: middle; font-size: 10.2px;" transform="translate(5,145)" y="0" x="0" id="text-entity-UserType-429c3533-c7a3-5d68-9a88-d1da5e4d68d0-attr-6-type" class="er entityLabel">ROOT</text><rect height="22" width="68.44927978515625" y="134" x="68.44927978515625" class="er attributeBoxEven"/><text style="dominant-baseline: middle; font-size: 10.2px;" transform="translate(73.44927978515625,145)" y="0" x="0" id="text-entity-UserType-429c3533-c7a3-5d68-9a88-d1da5e4d68d0-attr-6-name" class="er entityLabel">ROOT</text></g><g transform="translate(280.3984375,722 )" id="entity-Gender-2af7dcd7-ae74-587e-9aa6-b032bcfcd51b"><rect height="90" width="100" y="0" x="0" class="er entityBox"/><text style="dominant-baseline: middle; text-anchor: middle; font-size: 12px;" transform="translate(50,12)" y="0" x="0" id="text-entity-Gender-2af7dcd7-ae74-587e-9aa6-b032bcfcd51b" class="er entityLabel">Gender</text><rect height="22" width="50" y="24" x="0" class="er attributeBoxOdd"/><text style="dominant-baseline: middle; font-size: 10.2px;" transform="translate(5,35)" y="0" x="0" id="text-entity-Gender-2af7dcd7-ae74-587e-9aa6-b032bcfcd51b-attr-1-type" class="er entityLabel">MALE</text><rect height="22" width="50" y="24" x="50" class="er attributeBoxOdd"/><text style="dominant-baseline: middle; font-size: 10.2px;" transform="translate(55,35)" y="0" x="0" id="text-entity-Gender-2af7dcd7-ae74-587e-9aa6-b032bcfcd51b-attr-1-name" class="er entityLabel">MALE</text><rect height="22" width="50" y="46" x="0" class="er attributeBoxEven"/><text style="dominant-baseline: middle; font-size: 10.2px;" transform="translate(5,57)" y="0" x="0" id="text-entity-Gender-2af7dcd7-ae74-587e-9aa6-b032bcfcd51b-attr-2-type" class="er entityLabel">FEMALE</text><rect height="22" width="50" y="46" x="50" class="er attributeBoxEven"/><text style="dominant-baseline: middle; font-size: 10.2px;" transform="translate(55,57)" y="0" x="0" id="text-entity-Gender-2af7dcd7-ae74-587e-9aa6-b032bcfcd51b-attr-2-name" class="er entityLabel">FEMALE</text><rect height="22" width="50" y="68" x="0" class="er attributeBoxOdd"/><text style="dominant-baseline: middle; font-size: 10.2px;" transform="translate(5,79)" y="0" x="0" id="text-entity-Gender-2af7dcd7-ae74-587e-9aa6-b032bcfcd51b-attr-3-type" class="er entityLabel">OTHER</text><rect height="22" width="50" y="68" x="50" class="er attributeBoxOdd"/><text style="dominant-baseline: middle; font-size: 10.2px;" transform="translate(55,79)" y="0" x="0" id="text-entity-Gender-2af7dcd7-ae74-587e-9aa6-b032bcfcd51b-attr-3-name" class="er entityLabel">OTHER</text></g><g transform="translate(20,711 )" id="entity-Country-8feb2774-2bce-5e9d-a6c8-97bef785f563"><rect height="112" width="160.3984375" y="0" x="0" class="er entityBox"/><text style="dominant-baseline: middle; text-anchor: middle; font-size: 12px;" transform="translate(80.19921875,12)" y="0" x="0" id="text-entity-Country-8feb2774-2bce-5e9d-a6c8-97bef785f563" class="er entityLabel">Country</text><rect height="22" width="80.19921875" y="24" x="0" class="er attributeBoxOdd"/><text style="dominant-baseline: middle; font-size: 10.2px;" transform="translate(5,35)" y="0" x="0" id="text-entity-Country-8feb2774-2bce-5e9d-a6c8-97bef785f563-attr-1-type" class="er entityLabel">BRAZIL</text><rect height="22" width="80.19921875" y="24" x="80.19921875" class="er attributeBoxOdd"/><text style="dominant-baseline: middle; font-size: 10.2px;" transform="translate(85.19921875,35)" y="0" x="0" id="text-entity-Country-8feb2774-2bce-5e9d-a6c8-97bef785f563-attr-1-name" class="er entityLabel">BRAZIL</text><rect height="22" width="80.19921875" y="46" x="0" class="er attributeBoxEven"/><text style="dominant-baseline: middle; font-size: 10.2px;" transform="translate(5,57)" y="0" x="0" id="text-entity-Country-8feb2774-2bce-5e9d-a6c8-97bef785f563-attr-2-type" class="er entityLabel">UNITED_STATES</text><rect height="22" width="80.19921875" y="46" x="80.19921875" class="er attributeBoxEven"/><text style="dominant-baseline: middle; font-size: 10.2px;" transform="translate(85.19921875,57)" y="0" x="0" id="text-entity-Country-8feb2774-2bce-5e9d-a6c8-97bef785f563-attr-2-name" class="er entityLabel">UNITED_STATES</text><rect height="22" width="80.19921875" y="68" x="0" class="er attributeBoxOdd"/><text style="dominant-baseline: middle; font-size: 10.2px;" transform="translate(5,79)" y="0" x="0" id="text-entity-Country-8feb2774-2bce-5e9d-a6c8-97bef785f563-attr-3-type" class="er entityLabel">GERMANY</text><rect height="22" width="80.19921875" y="68" x="80.19921875" class="er attributeBoxOdd"/><text style="dominant-baseline: middle; font-size: 10.2px;" transform="translate(85.19921875,79)" y="0" x="0" id="text-entity-Country-8feb2774-2bce-5e9d-a6c8-97bef785f563-attr-3-name" class="er entityLabel">GERMANY</text><rect height="22" width="80.19921875" y="90" x="0" class="er attributeBoxEven"/><text style="dominant-baseline: middle; font-size: 10.2px;" transform="translate(5,101)" y="0" x="0" id="text-entity-Country-8feb2774-2bce-5e9d-a6c8-97bef785f563-attr-4-type" class="er entityLabel">JAPAN</text><rect height="22" width="80.19921875" y="90" x="80.19921875" class="er attributeBoxEven"/><text style="dominant-baseline: middle; font-size: 10.2px;" transform="translate(85.19921875,101)" y="0" x="0" id="text-entity-Country-8feb2774-2bce-5e9d-a6c8-97bef785f563-attr-4-name" class="er entityLabel">JAPAN</text></g><g transform="translate(245.88638305664062,20 )" id="entity-users-33ae1e26-be31-5c1d-bf65-e859e9d0308e"><rect height="569" width="169.02410888671875" y="0" x="0" class="er entityBox"/><text style="dominant-baseline: middle; text-anchor: middle; font-size: 12px;" transform="translate(84.51205444335938,12)" y="0" x="0" id="text-entity-users-33ae1e26-be31-5c1d-bf65-e859e9d0308e" class="er entityLabel">users</text><rect height="23" width="54.095550537109375" y="24" x="0" class="er attributeBoxOdd"/><text style="dominant-baseline: middle; font-size: 10.2px;" transform="translate(5,35.5)" y="0" x="0" id="text-entity-users-33ae1e26-be31-5c1d-bf65-e859e9d0308e-attr-1-type" class="er entityLabel">Int</text><rect height="23" width="92.35043334960938" y="24" x="54.095550537109375" class="er attributeBoxOdd"/><text style="dominant-baseline: middle; font-size: 10.2px;" transform="translate(59.095550537109375,35.5)" y="0" x="0" id="text-entity-users-33ae1e26-be31-5c1d-bf65-e859e9d0308e-attr-1-name" class="er entityLabel">userId</text><rect height="23" width="22.578125" y="24" x="146.44598388671875" class="er attributeBoxOdd"/><text style="dominant-baseline: middle; font-size: 10.2px;" transform="translate(151.44598388671875,35.5)" y="0" x="0" id="text-entity-users-33ae1e26-be31-5c1d-bf65-e859e9d0308e-attr-1-comment" class="er entityLabel">🗝️</text><rect height="22" width="54.095550537109375" y="47" x="0" class="er attributeBoxEven"/><text style="dominant-baseline: middle; font-size: 10.2px;" transform="translate(5,58)" y="0" x="0" id="text-entity-users-33ae1e26-be31-5c1d-bf65-e859e9d0308e-attr-2-type" class="er entityLabel">String</text><rect height="22" width="92.35043334960938" y="47" x="54.095550537109375" class="er attributeBoxEven"/><text style="dominant-baseline: middle; font-size: 10.2px;" transform="translate(59.095550537109375,58)" y="0" x="0" id="text-entity-users-33ae1e26-be31-5c1d-bf65-e859e9d0308e-attr-2-name" class="er entityLabel">username</text><rect height="22" width="22.578125" y="47" x="146.44598388671875" class="er attributeBoxEven"/><text style="dominant-baseline: middle; font-size: 10.2px;" transform="translate(151.44598388671875,58)" y="0" x="0" id="text-entity-users-33ae1e26-be31-5c1d-bf65-e859e9d0308e-attr-2-comment" class="er entityLabel"/><rect height="22" width="54.095550537109375" y="69" x="0" class="er attributeBoxOdd"/><text style="dominant-baseline: middle; font-size: 10.2px;" transform="translate(5,80)" y="0" x="0" id="text-entity-users-33ae1e26-be31-5c1d-bf65-e859e9d0308e-attr-3-type" class="er entityLabel">String</text><rect height="22" width="92.35043334960938" y="69" x="54.095550537109375" class="er attributeBoxOdd"/><text style="dominant-baseline: middle; font-size: 10.2px;" transform="translate(59.095550537109375,80)" y="0" x="0" id="text-entity-users-33ae1e26-be31-5c1d-bf65-e859e9d0308e-attr-3-name" class="er entityLabel">email</text><rect height="22" width="22.578125" y="69" x="146.44598388671875" class="er attributeBoxOdd"/><text style="dominant-baseline: middle; font-size: 10.2px;" transform="translate(151.44598388671875,80)" y="0" x="0" id="text-entity-users-33ae1e26-be31-5c1d-bf65-e859e9d0308e-attr-3-comment" class="er entityLabel"/><rect height="22" width="54.095550537109375" y="91" x="0" class="er attributeBoxEven"/><text style="dominant-baseline: middle; font-size: 10.2px;" transform="translate(5,102)" y="0" x="0" id="text-entity-users-33ae1e26-be31-5c1d-bf65-e859e9d0308e-attr-4-type" class="er entityLabel">String</text><rect height="22" width="92.35043334960938" y="91" x="54.095550537109375" class="er attributeBoxEven"/><text style="dominant-baseline: middle; font-size: 10.2px;" transform="translate(59.095550537109375,102)" y="0" x="0" id="text-entity-users-33ae1e26-be31-5c1d-bf65-e859e9d0308e-attr-4-name" class="er entityLabel">password</text><rect height="22" width="22.578125" y="91" x="146.44598388671875" class="er attributeBoxEven"/><text style="dominant-baseline: middle; font-size: 10.2px;" transform="translate(151.44598388671875,102)" y="0" x="0" id="text-entity-users-33ae1e26-be31-5c1d-bf65-e859e9d0308e-attr-4-comment" class="er entityLabel"/><rect height="23" width="54.095550537109375" y="113" x="0" class="er attributeBoxOdd"/><text style="dominant-baseline: middle; font-size: 10.2px;" transform="translate(5,124.5)" y="0" x="0" id="text-entity-users-33ae1e26-be31-5c1d-bf65-e859e9d0308e-attr-5-type" class="er entityLabel">String</text><rect height="23" width="92.35043334960938" y="113" x="54.095550537109375" class="er attributeBoxOdd"/><text style="dominant-baseline: middle; font-size: 10.2px;" transform="translate(59.095550537109375,124.5)" y="0" x="0" id="text-entity-users-33ae1e26-be31-5c1d-bf65-e859e9d0308e-attr-5-name" class="er entityLabel">firstname</text><rect height="23" width="22.578125" y="113" x="146.44598388671875" class="er attributeBoxOdd"/><text style="dominant-baseline: middle; font-size: 10.2px;" transform="translate(151.44598388671875,124.5)" y="0" x="0" id="text-entity-users-33ae1e26-be31-5c1d-bf65-e859e9d0308e-attr-5-comment" class="er entityLabel">❓</text><rect height="23" width="54.095550537109375" y="136" x="0" class="er attributeBoxEven"/><text style="dominant-baseline: middle; font-size: 10.2px;" transform="translate(5,147.5)" y="0" x="0" id="text-entity-users-33ae1e26-be31-5c1d-bf65-e859e9d0308e-attr-6-type" class="er entityLabel">String</text><rect height="23" width="92.35043334960938" y="136" x="54.095550537109375" class="er attributeBoxEven"/><text style="dominant-baseline: middle; font-size: 10.2px;" transform="translate(59.095550537109375,147.5)" y="0" x="0" id="text-entity-users-33ae1e26-be31-5c1d-bf65-e859e9d0308e-attr-6-name" class="er entityLabel">lastname</text><rect height="23" width="22.578125" y="136" x="146.44598388671875" class="er attributeBoxEven"/><text style="dominant-baseline: middle; font-size: 10.2px;" transform="translate(151.44598388671875,147.5)" y="0" x="0" id="text-entity-users-33ae1e26-be31-5c1d-bf65-e859e9d0308e-attr-6-comment" class="er entityLabel">❓</text><rect height="23" width="54.095550537109375" y="159" x="0" class="er attributeBoxOdd"/><text style="dominant-baseline: middle; font-size: 10.2px;" transform="translate(5,170.5)" y="0" x="0" id="text-entity-users-33ae1e26-be31-5c1d-bf65-e859e9d0308e-attr-7-type" class="er entityLabel">Bytes</text><rect height="23" width="92.35043334960938" y="159" x="54.095550537109375" class="er attributeBoxOdd"/><text style="dominant-baseline: middle; font-size: 10.2px;" transform="translate(59.095550537109375,170.5)" y="0" x="0" id="text-entity-users-33ae1e26-be31-5c1d-bf65-e859e9d0308e-attr-7-name" class="er entityLabel">photo</text><rect height="23" width="22.578125" y="159" x="146.44598388671875" class="er attributeBoxOdd"/><text style="dominant-baseline: middle; font-size: 10.2px;" transform="translate(151.44598388671875,170.5)" y="0" x="0" id="text-entity-users-33ae1e26-be31-5c1d-bf65-e859e9d0308e-attr-7-comment" class="er entityLabel">❓</text><rect height="23" width="54.095550537109375" y="182" x="0" class="er attributeBoxEven"/><text style="dominant-baseline: middle; font-size: 10.2px;" transform="translate(5,193.5)" y="0" x="0" id="text-entity-users-33ae1e26-be31-5c1d-bf65-e859e9d0308e-attr-8-type" class="er entityLabel">String</text><rect height="23" width="92.35043334960938" y="182" x="54.095550537109375" class="er attributeBoxEven"/><text style="dominant-baseline: middle; font-size: 10.2px;" transform="translate(59.095550537109375,193.5)" y="0" x="0" id="text-entity-users-33ae1e26-be31-5c1d-bf65-e859e9d0308e-attr-8-name" class="er entityLabel">biography</text><rect height="23" width="22.578125" y="182" x="146.44598388671875" class="er attributeBoxEven"/><text style="dominant-baseline: middle; font-size: 10.2px;" transform="translate(151.44598388671875,193.5)" y="0" x="0" id="text-entity-users-33ae1e26-be31-5c1d-bf65-e859e9d0308e-attr-8-comment" class="er entityLabel">❓</text><rect height="23" width="54.095550537109375" y="205" x="0" class="er attributeBoxOdd"/><text style="dominant-baseline: middle; font-size: 10.2px;" transform="translate(5,216.5)" y="0" x="0" id="text-entity-users-33ae1e26-be31-5c1d-bf65-e859e9d0308e-attr-9-type" class="er entityLabel">String</text><rect height="23" width="92.35043334960938" y="205" x="54.095550537109375" class="er attributeBoxOdd"/><text style="dominant-baseline: middle; font-size: 10.2px;" transform="translate(59.095550537109375,216.5)" y="0" x="0" id="text-entity-users-33ae1e26-be31-5c1d-bf65-e859e9d0308e-attr-9-name" class="er entityLabel">tittle</text><rect height="23" width="22.578125" y="205" x="146.44598388671875" class="er attributeBoxOdd"/><text style="dominant-baseline: middle; font-size: 10.2px;" transform="translate(151.44598388671875,216.5)" y="0" x="0" id="text-entity-users-33ae1e26-be31-5c1d-bf65-e859e9d0308e-attr-9-comment" class="er entityLabel">❓</text><rect height="23" width="54.095550537109375" y="228" x="0" class="er attributeBoxEven"/><text style="dominant-baseline: middle; font-size: 10.2px;" transform="translate(5,239.5)" y="0" x="0" id="text-entity-users-33ae1e26-be31-5c1d-bf65-e859e9d0308e-attr-10-type" class="er entityLabel">String</text><rect height="23" width="92.35043334960938" y="228" x="54.095550537109375" class="er attributeBoxEven"/><text style="dominant-baseline: middle; font-size: 10.2px;" transform="translate(59.095550537109375,239.5)" y="0" x="0" id="text-entity-users-33ae1e26-be31-5c1d-bf65-e859e9d0308e-attr-10-name" class="er entityLabel">description</text><rect height="23" width="22.578125" y="228" x="146.44598388671875" class="er attributeBoxEven"/><text style="dominant-baseline: middle; font-size: 10.2px;" transform="translate(151.44598388671875,239.5)" y="0" x="0" id="text-entity-users-33ae1e26-be31-5c1d-bf65-e859e9d0308e-attr-10-comment" class="er entityLabel">❓</text><rect height="23" width="54.095550537109375" y="251" x="0" class="er attributeBoxOdd"/><text style="dominant-baseline: middle; font-size: 10.2px;" transform="translate(5,262.5)" y="0" x="0" id="text-entity-users-33ae1e26-be31-5c1d-bf65-e859e9d0308e-attr-11-type" class="er entityLabel">DateTime</text><rect height="23" width="92.35043334960938" y="251" x="54.095550537109375" class="er attributeBoxOdd"/><text style="dominant-baseline: middle; font-size: 10.2px;" transform="translate(59.095550537109375,262.5)" y="0" x="0" id="text-entity-users-33ae1e26-be31-5c1d-bf65-e859e9d0308e-attr-11-name" class="er entityLabel">birth</text><rect height="23" width="22.578125" y="251" x="146.44598388671875" class="er attributeBoxOdd"/><text style="dominant-baseline: middle; font-size: 10.2px;" transform="translate(151.44598388671875,262.5)" y="0" x="0" id="text-entity-users-33ae1e26-be31-5c1d-bf65-e859e9d0308e-attr-11-comment" class="er entityLabel">❓</text><rect height="23" width="54.095550537109375" y="274" x="0" class="er attributeBoxEven"/><text style="dominant-baseline: middle; font-size: 10.2px;" transform="translate(5,285.5)" y="0" x="0" id="text-entity-users-33ae1e26-be31-5c1d-bf65-e859e9d0308e-attr-12-type" class="er entityLabel">String</text><rect height="23" width="92.35043334960938" y="274" x="54.095550537109375" class="er attributeBoxEven"/><text style="dominant-baseline: middle; font-size: 10.2px;" transform="translate(59.095550537109375,285.5)" y="0" x="0" id="text-entity-users-33ae1e26-be31-5c1d-bf65-e859e9d0308e-attr-12-name" class="er entityLabel">phone</text><rect height="23" width="22.578125" y="274" x="146.44598388671875" class="er attributeBoxEven"/><text style="dominant-baseline: middle; font-size: 10.2px;" transform="translate(151.44598388671875,285.5)" y="0" x="0" id="text-entity-users-33ae1e26-be31-5c1d-bf65-e859e9d0308e-attr-12-comment" class="er entityLabel">❓</text><rect height="23" width="54.095550537109375" y="297" x="0" class="er attributeBoxOdd"/><text style="dominant-baseline: middle; font-size: 10.2px;" transform="translate(5,308.5)" y="0" x="0" id="text-entity-users-33ae1e26-be31-5c1d-bf65-e859e9d0308e-attr-13-type" class="er entityLabel">String</text><rect height="23" width="92.35043334960938" y="297" x="54.095550537109375" class="er attributeBoxOdd"/><text style="dominant-baseline: middle; font-size: 10.2px;" transform="translate(59.095550537109375,308.5)" y="0" x="0" id="text-entity-users-33ae1e26-be31-5c1d-bf65-e859e9d0308e-attr-13-name" class="er entityLabel">profileDescription</text><rect height="23" width="22.578125" y="297" x="146.44598388671875" class="er attributeBoxOdd"/><text style="dominant-baseline: middle; font-size: 10.2px;" transform="translate(151.44598388671875,308.5)" y="0" x="0" id="text-entity-users-33ae1e26-be31-5c1d-bf65-e859e9d0308e-attr-13-comment" class="er entityLabel">❓</text><rect height="23" width="54.095550537109375" y="320" x="0" class="er attributeBoxEven"/><text style="dominant-baseline: middle; font-size: 10.2px;" transform="translate(5,331.5)" y="0" x="0" id="text-entity-users-33ae1e26-be31-5c1d-bf65-e859e9d0308e-attr-14-type" class="er entityLabel">String</text><rect height="23" width="92.35043334960938" y="320" x="54.095550537109375" class="er attributeBoxEven"/><text style="dominant-baseline: middle; font-size: 10.2px;" transform="translate(59.095550537109375,331.5)" y="0" x="0" id="text-entity-users-33ae1e26-be31-5c1d-bf65-e859e9d0308e-attr-14-name" class="er entityLabel">profileStatus</text><rect height="23" width="22.578125" y="320" x="146.44598388671875" class="er attributeBoxEven"/><text style="dominant-baseline: middle; font-size: 10.2px;" transform="translate(151.44598388671875,331.5)" y="0" x="0" id="text-entity-users-33ae1e26-be31-5c1d-bf65-e859e9d0308e-attr-14-comment" class="er entityLabel">❓</text><rect height="23" width="54.095550537109375" y="343" x="0" class="er attributeBoxOdd"/><text style="dominant-baseline: middle; font-size: 10.2px;" transform="translate(5,354.5)" y="0" x="0" id="text-entity-users-33ae1e26-be31-5c1d-bf65-e859e9d0308e-attr-15-type" class="er entityLabel">Json</text><rect height="23" width="92.35043334960938" y="343" x="54.095550537109375" class="er attributeBoxOdd"/><text style="dominant-baseline: middle; font-size: 10.2px;" transform="translate(59.095550537109375,354.5)" y="0" x="0" id="text-entity-users-33ae1e26-be31-5c1d-bf65-e859e9d0308e-attr-15-name" class="er entityLabel">socialNetwork</text><rect height="23" width="22.578125" y="343" x="146.44598388671875" class="er attributeBoxOdd"/><text style="dominant-baseline: middle; font-size: 10.2px;" transform="translate(151.44598388671875,354.5)" y="0" x="0" id="text-entity-users-33ae1e26-be31-5c1d-bf65-e859e9d0308e-attr-15-comment" class="er entityLabel">❓</text><rect height="23" width="54.095550537109375" y="366" x="0" class="er attributeBoxEven"/><text style="dominant-baseline: middle; font-size: 10.2px;" transform="translate(5,377.5)" y="0" x="0" id="text-entity-users-33ae1e26-be31-5c1d-bf65-e859e9d0308e-attr-16-type" class="er entityLabel">Json</text><rect height="23" width="92.35043334960938" y="366" x="54.095550537109375" class="er attributeBoxEven"/><text style="dominant-baseline: middle; font-size: 10.2px;" transform="translate(59.095550537109375,377.5)" y="0" x="0" id="text-entity-users-33ae1e26-be31-5c1d-bf65-e859e9d0308e-attr-16-name" class="er entityLabel">interests</text><rect height="23" width="22.578125" y="366" x="146.44598388671875" class="er attributeBoxEven"/><text style="dominant-baseline: middle; font-size: 10.2px;" transform="translate(151.44598388671875,377.5)" y="0" x="0" id="text-entity-users-33ae1e26-be31-5c1d-bf65-e859e9d0308e-attr-16-comment" class="er entityLabel">❓</text><rect height="23" width="54.095550537109375" y="389" x="0" class="er attributeBoxOdd"/><text style="dominant-baseline: middle; font-size: 10.2px;" transform="translate(5,400.5)" y="0" x="0" id="text-entity-users-33ae1e26-be31-5c1d-bf65-e859e9d0308e-attr-17-type" class="er entityLabel">Json</text><rect height="23" width="92.35043334960938" y="389" x="54.095550537109375" class="er attributeBoxOdd"/><text style="dominant-baseline: middle; font-size: 10.2px;" transform="translate(59.095550537109375,400.5)" y="0" x="0" id="text-entity-users-33ae1e26-be31-5c1d-bf65-e859e9d0308e-attr-17-name" class="er entityLabel">preferences</text><rect height="23" width="22.578125" y="389" x="146.44598388671875" class="er attributeBoxOdd"/><text style="dominant-baseline: middle; font-size: 10.2px;" transform="translate(151.44598388671875,400.5)" y="0" x="0" id="text-entity-users-33ae1e26-be31-5c1d-bf65-e859e9d0308e-attr-17-comment" class="er entityLabel">❓</text><rect height="23" width="54.095550537109375" y="412" x="0" class="er attributeBoxEven"/><text style="dominant-baseline: middle; font-size: 10.2px;" transform="translate(5,423.5)" y="0" x="0" id="text-entity-users-33ae1e26-be31-5c1d-bf65-e859e9d0308e-attr-18-type" class="er entityLabel">Json</text><rect height="23" width="92.35043334960938" y="412" x="54.095550537109375" class="er attributeBoxEven"/><text style="dominant-baseline: middle; font-size: 10.2px;" transform="translate(59.095550537109375,423.5)" y="0" x="0" id="text-entity-users-33ae1e26-be31-5c1d-bf65-e859e9d0308e-attr-18-name" class="er entityLabel">configurations</text><rect height="23" width="22.578125" y="412" x="146.44598388671875" class="er attributeBoxEven"/><text style="dominant-baseline: middle; font-size: 10.2px;" transform="translate(151.44598388671875,423.5)" y="0" x="0" id="text-entity-users-33ae1e26-be31-5c1d-bf65-e859e9d0308e-attr-18-comment" class="er entityLabel">❓</text><rect height="23" width="54.095550537109375" y="435" x="0" class="er attributeBoxOdd"/><text style="dominant-baseline: middle; font-size: 10.2px;" transform="translate(5,446.5)" y="0" x="0" id="text-entity-users-33ae1e26-be31-5c1d-bf65-e859e9d0308e-attr-19-type" class="er entityLabel">Country</text><rect height="23" width="92.35043334960938" y="435" x="54.095550537109375" class="er attributeBoxOdd"/><text style="dominant-baseline: middle; font-size: 10.2px;" transform="translate(59.095550537109375,446.5)" y="0" x="0" id="text-entity-users-33ae1e26-be31-5c1d-bf65-e859e9d0308e-attr-19-name" class="er entityLabel">country</text><rect height="23" width="22.578125" y="435" x="146.44598388671875" class="er attributeBoxOdd"/><text style="dominant-baseline: middle; font-size: 10.2px;" transform="translate(151.44598388671875,446.5)" y="0" x="0" id="text-entity-users-33ae1e26-be31-5c1d-bf65-e859e9d0308e-attr-19-comment" class="er entityLabel">❓</text><rect height="23" width="54.095550537109375" y="458" x="0" class="er attributeBoxEven"/><text style="dominant-baseline: middle; font-size: 10.2px;" transform="translate(5,469.5)" y="0" x="0" id="text-entity-users-33ae1e26-be31-5c1d-bf65-e859e9d0308e-attr-20-type" class="er entityLabel">Gender</text><rect height="23" width="92.35043334960938" y="458" x="54.095550537109375" class="er attributeBoxEven"/><text style="dominant-baseline: middle; font-size: 10.2px;" transform="translate(59.095550537109375,469.5)" y="0" x="0" id="text-entity-users-33ae1e26-be31-5c1d-bf65-e859e9d0308e-attr-20-name" class="er entityLabel">gender</text><rect height="23" width="22.578125" y="458" x="146.44598388671875" class="er attributeBoxEven"/><text style="dominant-baseline: middle; font-size: 10.2px;" transform="translate(151.44598388671875,469.5)" y="0" x="0" id="text-entity-users-33ae1e26-be31-5c1d-bf65-e859e9d0308e-attr-20-comment" class="er entityLabel">❓</text><rect height="22" width="54.095550537109375" y="481" x="0" class="er attributeBoxOdd"/><text style="dominant-baseline: middle; font-size: 10.2px;" transform="translate(5,492)" y="0" x="0" id="text-entity-users-33ae1e26-be31-5c1d-bf65-e859e9d0308e-attr-21-type" class="er entityLabel">UserType</text><rect height="22" width="92.35043334960938" y="481" x="54.095550537109375" class="er attributeBoxOdd"/><text style="dominant-baseline: middle; font-size: 10.2px;" transform="translate(59.095550537109375,492)" y="0" x="0" id="text-entity-users-33ae1e26-be31-5c1d-bf65-e859e9d0308e-attr-21-name" class="er entityLabel">userType</text><rect height="22" width="22.578125" y="481" x="146.44598388671875" class="er attributeBoxOdd"/><text style="dominant-baseline: middle; font-size: 10.2px;" transform="translate(151.44598388671875,492)" y="0" x="0" id="text-entity-users-33ae1e26-be31-5c1d-bf65-e859e9d0308e-attr-21-comment" class="er entityLabel"/><rect height="22" width="54.095550537109375" y="503" x="0" class="er attributeBoxEven"/><text style="dominant-baseline: middle; font-size: 10.2px;" transform="translate(5,514)" y="0" x="0" id="text-entity-users-33ae1e26-be31-5c1d-bf65-e859e9d0308e-attr-22-type" class="er entityLabel">Boolean</text><rect height="22" width="92.35043334960938" y="503" x="54.095550537109375" class="er attributeBoxEven"/><text style="dominant-baseline: middle; font-size: 10.2px;" transform="translate(59.095550537109375,514)" y="0" x="0" id="text-entity-users-33ae1e26-be31-5c1d-bf65-e859e9d0308e-attr-22-name" class="er entityLabel">active</text><rect height="22" width="22.578125" y="503" x="146.44598388671875" class="er attributeBoxEven"/><text style="dominant-baseline: middle; font-size: 10.2px;" transform="translate(151.44598388671875,514)" y="0" x="0" id="text-entity-users-33ae1e26-be31-5c1d-bf65-e859e9d0308e-attr-22-comment" class="er entityLabel"/><rect height="22" width="54.095550537109375" y="525" x="0" class="er attributeBoxOdd"/><text style="dominant-baseline: middle; font-size: 10.2px;" transform="translate(5,536)" y="0" x="0" id="text-entity-users-33ae1e26-be31-5c1d-bf65-e859e9d0308e-attr-23-type" class="er entityLabel">DateTime</text><rect height="22" width="92.35043334960938" y="525" x="54.095550537109375" class="er attributeBoxOdd"/><text style="dominant-baseline: middle; font-size: 10.2px;" transform="translate(59.095550537109375,536)" y="0" x="0" id="text-entity-users-33ae1e26-be31-5c1d-bf65-e859e9d0308e-attr-23-name" class="er entityLabel">createdAt</text><rect height="22" width="22.578125" y="525" x="146.44598388671875" class="er attributeBoxOdd"/><text style="dominant-baseline: middle; font-size: 10.2px;" transform="translate(151.44598388671875,536)" y="0" x="0" id="text-entity-users-33ae1e26-be31-5c1d-bf65-e859e9d0308e-attr-23-comment" class="er entityLabel"/><rect height="22" width="54.095550537109375" y="547" x="0" class="er attributeBoxEven"/><text style="dominant-baseline: middle; font-size: 10.2px;" transform="translate(5,558)" y="0" x="0" id="text-entity-users-33ae1e26-be31-5c1d-bf65-e859e9d0308e-attr-24-type" class="er entityLabel">DateTime</text><rect height="22" width="92.35043334960938" y="547" x="54.095550537109375" class="er attributeBoxEven"/><text style="dominant-baseline: middle; font-size: 10.2px;" transform="translate(59.095550537109375,558)" y="0" x="0" id="text-entity-users-33ae1e26-be31-5c1d-bf65-e859e9d0308e-attr-24-name" class="er entityLabel">updatedAt</text><rect height="22" width="22.578125" y="547" x="146.44598388671875" class="er attributeBoxEven"/><text style="dominant-baseline: middle; font-size: 10.2px;" transform="translate(151.44598388671875,558)" y="0" x="0" id="text-entity-users-33ae1e26-be31-5c1d-bf65-e859e9d0308e-attr-24-comment" class="er entityLabel"/></g><rect height="14" width="75.94140625" y="554.8057250976562" x="117.73353576660156" class="er relationshipLabelBox"/><text style="text-anchor: middle; dominant-baseline: middle; font-size: 12px;" y="561.8057250976562" x="155.70423889160156" id="rel1" class="er relationshipLabel">enum:country</text><rect height="14" width="72.380859375" y="648.5" x="294.2080078125" class="er relationshipLabelBox"/><text style="text-anchor: middle; dominant-baseline: middle; font-size: 12px;" y="655.5" x="330.3984375" id="rel2" class="er relationshipLabel">enum:gender</text><rect height="14" width="81.8359375" y="549.4586181640625" x="452.7399597167969" class="er relationshipLabelBox"/><text style="text-anchor: middle; dominant-baseline: middle; font-size: 12px;" y="556.4586181640625" x="493.6579284667969" id="rel3" class="er relationshipLabel">enum:userType</text></svg>